<?xml version='1.0' encoding='utf-8'?>
<svg xmlns="http://www.w3.org/2000/svg" viewBox="0 0 160 220"> <g transform="translate(11 -843.36)"> <path d="m29 878.36 25 50v10h-5l-25-45v-15h5z" fill="#ccc"/> <path d="m59 938.36v-60h20v60l-10 10-10-10z" fill="#ccc"/> <path d="m59 1028.4v-65l10-10 10 10v65h-20z" fill="#ccc"/> <path d="m24 853.36 90-1e-5 10 10-10 10-90 1e-5 -10-10 10-10z" fill="#f00"/> <path d="m-0.99995 943.36v-70l10-10 10 10v70l-10 10-10-10z" fill="#f00"/> <path d="m-0.99995 1033.4v-70l10-10 10 10v70l-10 10-10-10z" fill="#f00"/> <path d="m119 943.36v-70l10-10 10 10v70l-10 10-10-10z" fill="#f00"/> <path d="m119 1033.4v-70l10-10 10 10v70l-10 10-10-10z" fill="#f00"/> <path d="m24 1033.4 90-1e-4 10 10-10 10-90 1e-4 -10-10 10-10z" fill="#ccc"/> <path d="m24 943.36h30l10 10-10 10h-30l-10-10 10-10z" fill="#f00"/> <path d="m84 943.36h25l10 10-10 10h-25l-10-10 10-10z" fill="#f00"/> <path d="m109 878.36-25 50v10h5l25-45v-15h-5z" fill="#ccc"/> <path d="m109 1028.4-25-50v-10h5l25 45v15h-5z" fill="#ccc"/> <path d="m29 1028.4 25-50v-10h-5l-25 45v15h5z" fill="#ccc"/> </g> </svg>